<?xml version="1.0" encoding="UTF-8" standalone="no"?>
<svg
   xmlns:dc="http://purl.org/dc/elements/1.1/"
   xmlns:cc="http://creativecommons.org/ns#"
   xmlns:rdf="http://www.w3.org/1999/02/22-rdf-syntax-ns#"
   xmlns:svg="http://www.w3.org/2000/svg"
   xmlns="http://www.w3.org/2000/svg"
   width="1000"
   height="526.63812"
   viewBox="0 0 264.58332 139.33967"
   version="1.1"
   id="svg8">
  <defs
     id="defs2" />
  <metadata
     id="metadata5">
    <rdf:RDF>
      <cc:Work
         rdf:about="">
        <dc:format>image/svg+xml</dc:format>
        <dc:type
           rdf:resource="http://purl.org/dc/dcmitype/StillImage" />
        <dc:title></dc:title>
      </cc:Work>
    </rdf:RDF>
  </metadata>
  <g
     id="layer1"
     style="display:inline"
     transform="translate(-22.620933,-105.47615)">
    <path
       d="M 22.620933,211.5573 V 133.37645 H 34.7824 l 16.02225,37.64263 V 133.37645 H 65.089548 V 211.5573 H 53.410679 L 37.388428,171.01908 v 40.53822 z"
       style="font-style:normal;font-variant:normal;font-weight:bold;font-stretch:normal;font-size:119.521px;line-height:1.25;font-family:Oswald;-inkscape-font-specification:'Oswald Bold';fill:#ffffff;fill-opacity:1;stroke-width:0.264583"
       id="path939" />
    <path
       d="m 99.160851,212.71553 q -8.783279,0 -13.898815,-3.08862 -5.115538,-3.08862 -7.335488,-8.8798 -2.21995,-5.79118 -2.21995,-13.8023 v -29.0524 q 0,-8.10764 2.21995,-13.80229 2.21995,-5.69466 7.335488,-8.68677 5.115536,-3.08862 13.898815,-3.08862 8.879799,0 13.995339,3.08862 5.21206,2.99211 7.43201,8.68677 2.21996,5.69465 2.21996,13.80229 v 29.0524 q 0,8.01112 -2.21996,13.8023 -2.21995,5.79118 -7.43201,8.8798 -5.11554,3.08862 -13.995339,3.08862 z m 0,-12.25798 q 2.702549,0 3.957309,-1.35128 1.25476,-1.35127 1.64083,-3.4747 0.38608,-2.12343 0.38608,-4.34338 v -37.64263 q 0,-2.31648 -0.38608,-4.34339 -0.38607,-2.12343 -1.64083,-3.4747 -1.25476,-1.35128 -3.957309,-1.35128 -2.509512,0 -3.764264,1.35128 -1.254752,1.35127 -1.640829,3.4747 -0.386076,2.02691 -0.386076,4.34339 v 37.64263 q 0,2.21995 0.289555,4.34338 0.386085,2.12343 1.544316,3.4747 1.254752,1.35128 3.957298,1.35128 z"
       style="font-style:normal;font-variant:normal;font-weight:bold;font-stretch:normal;font-size:119.521px;line-height:1.25;font-family:Oswald;-inkscape-font-specification:'Oswald Bold';fill:#ffffff;fill-opacity:1;stroke-width:0.264583"
       id="path941" />
    <path
       d="m 141.83486,181.46005 v -19.81769 h 4.37947 v 8.02494 h 3.05828 v -8.02494 h 4.40393 v 19.81769 h -4.40393 v -8.66106 h -3.05828 v 8.66106 z"
       style="font-style:normal;font-variant:normal;font-weight:bold;font-stretch:normal;font-size:30.2968px;line-height:1.25;font-family:Oswald;-inkscape-font-specification:'Oswald Bold';fill:#ffffff;fill-opacity:1;stroke-width:0.264583"
       id="path946" />
    <path
       d="m 155.73167,181.46005 3.74334,-19.81769 h 4.99113 l 3.69441,19.81769 h -4.03694 l -0.6606,-4.18373 h -2.91148 l -0.68506,4.18373 z m 5.21132,-6.80163 h 2.10411 l -1.05206,-7.73134 z"
       style="font-style:normal;font-variant:normal;font-weight:bold;font-stretch:normal;font-size:30.2968px;line-height:1.25;font-family:Oswald;-inkscape-font-specification:'Oswald Bold';fill:#ffffff;fill-opacity:1;stroke-width:0.264583"
       id="path948" />
    <path
       d="m 171.68364,181.46005 v -8.09834 l -3.76781,-11.71935 h 4.1348 l 1.8839,6.26337 1.68818,-6.26337 h 3.96353 l -3.69441,11.71935 v 8.09834 z"
       style="font-style:normal;font-variant:normal;font-weight:bold;font-stretch:normal;font-size:30.2968px;line-height:1.25;font-family:Oswald;-inkscape-font-specification:'Oswald Bold';fill:#ffffff;fill-opacity:1;stroke-width:0.264583"
       id="path950" />
    <rect
       style="display:inline;fill:#ffffff;fill-opacity:1;stroke-width:0.999997;stroke-linecap:round;stroke-linejoin:round;paint-order:markers stroke fill"
       id="rect860"
       width="38.984245"
       height="2.0689962"
       x="140.62126"
       y="183.03444" />
    <path
       d="m 201.27838,196.42593 q 5.87598,-10.84443 6.79197,-22.0463 0.35616,-4.22249 -0.17912,-7.91403 -1.50351,-1.22361 -3.70788,-0.63987 -2.20436,0.58376 -2.88905,1.89541 l 0.0671,8.97572 q 0.15805,13.03067 -0.083,19.72907 z m -1.81605,32.67078 q -1.66764,5.20866 -4.71861,8.71958 -3.08474,3.569 -5.42688,4.18924 -2.38806,0.6324 -2.64345,-0.33201 -0.10946,-0.41332 0.93192,-0.93482 l 0.0918,-0.0243 q 3.45503,-1.79955 5.70352,-6.6706 0.50372,-1.06714 0.77781,-2.07347 3.22182,-10.28901 2.85378,-29.30888 l -0.59673,-23.03832 q -0.45282,-15.99958 -0.17345,-18.28509 0.27936,-2.2855 1.21673,-2.82859 0.75366,-0.49446 2.03954,-0.83498 1.28588,-0.34052 1.66416,0.34562 0.10674,0.21745 0.19187,0.53892 0.073,0.27555 0.0704,1.75057 -0.003,1.47502 0.11907,1.93427 0.52677,-0.2378 1.67487,-0.54183 5.00575,-1.3256 7.45624,0.87585 0.98074,0.91977 1.34558,2.29749 1.77559,6.70493 -0.55879,17.00465 -2.33437,10.29971 -5.82953,15.84491 -2.01904,3.13935 -3.79793,3.65957 0.4018,18.96179 -2.39199,27.71224 z"
       style="font-style:normal;font-variant:normal;font-weight:normal;font-stretch:normal;font-size:120.481px;line-height:1.25;font-family:Kristi;-inkscape-font-specification:Kristi;fill:#000000;fill-opacity:1;stroke-width:0.264583"
       id="path901" />
    <path
       id="path903"
       style="font-style:normal;font-variant:normal;font-weight:normal;font-stretch:normal;font-size:120.481px;line-height:1.25;font-family:Kristi;-inkscape-font-specification:Kristi;fill:#000000;fill-opacity:1;stroke-width:0.264583"
       d="m 274.44347,105.47745 c -0.33441,0.009 -0.69471,0.0608 -1.08084,0.15691 -2.0819,0.55132 -3.86461,4.39799 -5.34789,11.54 -0.36001,1.7335 -0.81334,4.22905 -1.35961,7.48621 -0.55438,3.22655 -0.95371,5.42899 -1.19853,6.60777 l -1.05038,5.68424 c -0.5436,2.89606 -1.12132,4.98198 -1.73352,6.25805 -0.61221,1.27607 -1.2437,2.29535 -1.89378,3.05725 -2.02067,0.53511 -3.83669,1.40927 -5.44846,2.6224 -1.58115,1.20504 -4.05818,5.39924 -7.43071,12.58288 -2.80104,6.0142 -4.79282,10.98209 -5.9822,14.91232 -0.52198,0.92001 -0.58883,1.03304 -1.43807,2.53352 -1.91951,3.39149 -3.82403,6.22165 -5.71304,8.4911 -1.89712,2.23885 -3.73323,3.59357 -5.50897,4.06381 -1.77574,0.47025 -2.972,0.0987 -3.58807,-1.11422 -0.23779,-0.52678 -0.6202,-1.78499 -1.1472,-3.77504 -0.527,-1.99004 -0.77078,-4.8905 -0.73155,-8.70142 2.36713,-2.69095 4.51418,-6.02786 6.44084,-10.01097 1.92665,-3.98311 3.189,-7.381 3.78754,-10.19333 0.0215,-0.66097 -0.004,-1.12913 -0.0768,-1.40468 -0.48646,-1.83696 -1.84969,-2.90134 -4.08926,-3.19287 -0.94643,-0.10976 -1.81762,-0.0593 -2.61364,0.15148 -1.65327,0.43782 -2.98596,1.83921 -3.99788,4.20403 -2.39751,4.92688 -3.78142,10.09332 -4.15186,15.49907 -0.34794,5.367 -0.16113,9.41276 0.56045,12.13759 1.2648,4.77612 3.3314,7.81672 6.19963,9.12125 1.52281,0.67793 3.17195,0.78157 4.94768,0.31132 3.18057,-0.84227 6.29657,-3.56837 9.34827,-8.16268 0.011,0.0603 0.0218,0.12007 0.0359,0.17319 0.56754,2.14313 1.68243,3.32253 3.34478,3.53758 0.47728,0.0702 0.97643,0.0364 1.49691,-0.10141 1.83696,-0.48647 3.25658,-1.43608 4.25869,-2.84817 1.02462,-1.45082 1.65418,-2.28911 1.88919,-2.51516 2.56777,-4.28394 5.2307,-9.75593 7.98824,-16.41633 l 3.08812,-7.4524 c -0.002,1.47502 -0.26422,5.31212 -0.78497,11.51121 -0.49823,6.16037 -0.12308,11.59794 1.1255,16.31284 0.67294,2.54114 1.77174,4.21597 3.29637,5.02446 0.75827,0.38894 1.52023,0.48188 2.28563,0.27918 1.20662,-0.5161 1.60945,-1.6548 1.20854,-3.41613 -0.17025,-0.64294 -0.79271,-1.19897 -1.86705,-1.66801 -1.1455,-0.61403 -1.81341,-1.15764 -2.00437,-1.63128 -0.7234,-2.85542 -0.64337,-9.23293 0.24079,-19.13222 l 0.4724,-5.82571 c 1.247,-19.16908 3.47716,-34.19217 6.69081,-45.06874 1.77574,-0.47024 3.05636,-1.75951 3.84138,-3.86767 0.78501,-2.10815 0.9786,-3.91196 0.58132,-5.41215 -0.47795,-1.60376 -1.44119,-2.38677 -2.89032,-2.34907 z m -16.09249,46.83899 c 0.13869,0.0288 0.25261,0.21198 0.34179,0.54877 0.0811,0.30616 0.0901,0.95889 0.0272,1.95846 -0.32554,4.21437 -2.04511,9.53509 -5.15926,15.96228 -3.11416,6.4272 -5.5635,10.66327 -7.34808,12.70849 -0.47631,0.55205 -0.85245,0.86474 -1.128,0.9377 -0.23053,-0.005 -0.40629,-0.23642 -0.5279,-0.69566 -0.12162,-0.45924 0.0803,-1.67589 0.60594,-3.64983 2.30351,-8.37489 5.96546,-16.56876 10.98581,-24.58193 1.25418,-2.06858 1.98827,-3.13153 2.20258,-3.18828 z m -30.27493,5.5603 c 0.22605,0.23501 0.36724,0.45965 0.424,0.67396 0.38106,1.43897 -0.10202,3.69677 -1.44975,6.77302 -1.34773,3.07625 -2.31568,4.74127 -2.90368,4.99526 -0.19459,-0.73479 0.2914,-2.79674 1.4581,-6.18544 1.19731,-3.39681 2.02117,-5.48232 2.47133,-6.2568 z" />
    <path
       d="m 278.88174,145.40541 q -2.19891,0.97546 -2.88383,13.0499 -0.68493,12.07442 -0.14982,14.09509 0.53511,2.02067 0.9025,1.92337 1.92882,-0.51078 3.827,-9.85952 1.88602,-9.39466 0.0618,-16.2833 -0.82699,-3.12285 -1.75763,-2.92554 z m -2.24281,-5.50001 q 1.28587,-0.34054 2.39895,0.15101 1.97219,0.95209 3.01808,4.90156 4.77949,18.04823 0.73375,28.752 l -0.38754,1.13467 q -2.46305,6.8445 -4.89704,7.48906 -3.07021,0.46903 -4.59966,-3.45068 -0.8878,-3.35247 -0.89028,-14.31111 0.0434,-10.97079 1.59726,-19.39288 0.92613,-4.66828 3.02648,-5.27363 z"
       style="font-style:normal;font-variant:normal;font-weight:normal;font-stretch:normal;font-size:120.481px;line-height:1.25;font-family:Kristi;-inkscape-font-specification:Kristi;fill:#000000;fill-opacity:1;stroke-width:0.264583"
       id="path907" />
  </g>
</svg>
