<?xml version="1.0" encoding="UTF-8" standalone="no"?>
<svg
   xmlns:dc="http://purl.org/dc/elements/1.1/"
   xmlns:cc="http://creativecommons.org/ns#"
   xmlns:rdf="http://www.w3.org/1999/02/22-rdf-syntax-ns#"
   xmlns:svg="http://www.w3.org/2000/svg"
   xmlns="http://www.w3.org/2000/svg"
   width="800"
   height="692.33661"
   viewBox="0 0 211.66666 183.18073"
   version="1.1"
   id="svg8">
  <defs
     id="defs2" />
  <metadata
     id="metadata5">
    <rdf:RDF>
      <cc:Work
         rdf:about="">
        <dc:format>image/svg+xml</dc:format>
        <dc:type
           rdf:resource="http://purl.org/dc/dcmitype/StillImage" />
        <dc:title></dc:title>
      </cc:Work>
    </rdf:RDF>
  </metadata>
  <g
     id="layer1"
     style="display:inline"
     transform="translate(-22.620933,-113.02198)">
    <path
       d="M 184.63301,192.44281 V 166.3898 h 5.7574 v 10.54986 h 4.02053 V 166.3898 h 5.78955 v 26.05301 h -5.78955 v -11.38613 h -4.02053 v 11.38613 z"
       style="font-style:normal;font-variant:normal;font-weight:bold;font-stretch:normal;font-size:30.2968px;line-height:1.25;font-family:Oswald;-inkscape-font-specification:'Oswald Bold';fill:#000000;fill-opacity:0.2;stroke-width:0.264583"
       id="path963" />
    <path
       d="m 202.90224,192.44281 4.92113,-26.05301 h 6.5615 l 4.8568,26.05301 h -5.30711 l -0.86843,-5.50008 h -3.82754 l -0.9006,5.50008 z m 6.85098,-8.94165 h 2.76612 l -1.38306,-10.16389 z"
       style="font-style:normal;font-variant:normal;font-weight:bold;font-stretch:normal;font-size:30.2968px;line-height:1.25;font-family:Oswald;-inkscape-font-specification:'Oswald Bold';fill:#000000;fill-opacity:0.2;stroke-width:0.264583"
       id="path965" />
    <path
       d="m 223.87324,192.44281 v -10.64635 l -4.95329,-15.40666 h 5.43575 l 2.47665,8.23403 2.21932,-8.23403 h 5.21062 l -4.8568,15.40666 v 10.64635 z"
       style="font-style:normal;font-variant:normal;font-weight:bold;font-stretch:normal;font-size:30.2968px;line-height:1.25;font-family:Oswald;-inkscape-font-specification:'Oswald Bold';fill:#000000;fill-opacity:0.2;stroke-width:0.264583"
       id="path967" />
    <rect
       style="fill:#000000;fill-opacity:0.2;stroke-width:1;stroke-linecap:round;stroke-linejoin:round;paint-order:markers stroke fill"
       id="rect874"
       width="51.250031"
       height="2.7199736"
       x="183.03757"
       y="194.51254" />
    <path
       d="M 28.965559,253.83517 V 151.05593 h 15.987882 l 21.063401,49.4863 v -49.4863 H 84.79626 V 253.83517 H 69.442817 L 48.379415,200.54223 v 53.29294 z"
       style="font-style:normal;font-variant:normal;font-weight:bold;font-stretch:normal;font-size:119.521px;line-height:1.25;font-family:Oswald;-inkscape-font-specification:'Oswald Bold';fill:#000000;fill-opacity:0.2;stroke-width:0.264583"
       id="path956" />
    <path
       d="m 129.58758,255.35784 q -11.54682,0 -18.27188,-4.06043 -6.72506,-4.06041 -9.64348,-11.67369 -2.918421,-7.61327 -2.918421,-18.14497 v -38.19327 q 0,-10.6586 2.918421,-18.14499 2.91842,-7.48639 9.64348,-11.41991 6.72506,-4.06041 18.27188,-4.06041 11.67369,0 18.39874,4.06041 6.85196,3.93352 9.77038,11.41991 2.91842,7.48639 2.91842,18.14499 v 38.19327 q 0,10.5317 -2.91842,18.14497 -2.91842,7.61328 -9.77038,11.67369 -6.72505,4.06043 -18.39874,4.06043 z m 0,-16.11478 q 3.55285,0 5.2024,-1.77643 1.64954,-1.77643 2.15709,-4.56796 0.50756,-2.79154 0.50756,-5.70997 v -49.4863 q 0,-3.0453 -0.50756,-5.70995 -0.50755,-2.79154 -2.15709,-4.56797 -1.64955,-1.77643 -5.2024,-1.77643 -3.29909,0 -4.94864,1.77643 -1.64955,1.77643 -2.15709,4.56797 -0.50755,2.66465 -0.50755,5.70995 v 49.4863 q 0,2.91843 0.38066,5.70997 0.50755,2.79153 2.0302,4.56796 1.64955,1.77643 5.20242,1.77643 z"
       style="font-style:normal;font-variant:normal;font-weight:bold;font-stretch:normal;font-size:119.521px;line-height:1.25;font-family:Oswald;-inkscape-font-specification:'Oswald Bold';fill:#000000;fill-opacity:0.2;stroke-width:0.264583"
       id="path958" />
    <path
       d="M 22.620933,246.91795 V 144.13871 h 15.987882 l 21.063401,49.4863 v -49.4863 H 78.451634 V 246.91795 H 63.098191 L 42.03479,193.62501 v 53.29294 z"
       style="font-style:normal;font-variant:normal;font-weight:bold;font-stretch:normal;font-size:119.521px;line-height:1.25;font-family:Oswald;-inkscape-font-specification:'Oswald Bold';fill:#ffffff;fill-opacity:1;stroke-width:0.264583"
       id="path939" />
    <path
       d="m 123.24294,248.4406 q -11.5468,0 -18.27186,-4.06041 -6.725061,-4.06041 -9.643484,-11.67369 -2.918423,-7.61328 -2.918423,-18.14498 v -38.19328 q 0,-10.65858 2.918423,-18.14497 2.918423,-7.48639 9.643484,-11.41992 6.72506,-4.06041 18.27186,-4.06041 11.67369,0 18.39876,4.06041 6.85195,3.93353 9.77037,11.41992 2.91843,7.48639 2.91843,18.14497 v 38.19328 q 0,10.5317 -2.91843,18.14498 -2.91842,7.61328 -9.77037,11.67369 -6.72507,4.06041 -18.39876,4.06041 z m 0,-16.11477 q 3.55287,0 5.20241,-1.77643 1.64955,-1.77643 2.1571,-4.56797 0.50755,-2.79153 0.50755,-5.70995 v -49.4863 q 0,-3.04532 -0.50755,-5.70997 -0.50755,-2.79153 -2.1571,-4.56796 -1.64954,-1.77643 -5.20241,-1.77643 -3.29909,0 -4.94863,1.77643 -1.64954,1.77643 -2.15709,4.56796 -0.50755,2.66465 -0.50755,5.70997 v 49.4863 q 0,2.91842 0.38066,5.70995 0.50756,2.79154 2.03021,4.56797 1.64954,1.77643 5.2024,1.77643 z"
       style="font-style:normal;font-variant:normal;font-weight:bold;font-stretch:normal;font-size:119.521px;line-height:1.25;font-family:Oswald;-inkscape-font-specification:'Oswald Bold';fill:#ffffff;fill-opacity:1;stroke-width:0.264583"
       id="path941" />
    <path
       d="m 180.45445,187.78086 v -26.05301 h 5.7574 v 10.54986 h 4.02053 v -10.54986 h 5.78955 v 26.05301 h -5.78955 v -11.38613 h -4.02053 v 11.38613 z"
       style="font-style:normal;font-variant:normal;font-weight:bold;font-stretch:normal;font-size:30.2968px;line-height:1.25;font-family:Oswald;-inkscape-font-specification:'Oswald Bold';fill:#ffffff;fill-opacity:1;stroke-width:0.264583"
       id="path946" />
    <path
       d="m 198.72368,187.78086 4.92112,-26.05301 h 6.56151 l 4.8568,26.05301 h -5.3071 l -0.86844,-5.50007 h -3.82754 l -0.9006,5.50007 z m 6.85098,-8.94165 h 2.76613 l -1.38307,-10.16389 z"
       style="font-style:normal;font-variant:normal;font-weight:bold;font-stretch:normal;font-size:30.2968px;line-height:1.25;font-family:Oswald;-inkscape-font-specification:'Oswald Bold';fill:#ffffff;fill-opacity:1;stroke-width:0.264583"
       id="path948" />
    <path
       d="m 219.69468,187.78086 v -10.64635 l -4.95329,-15.40666 h 5.43575 l 2.47665,8.23404 2.21933,-8.23404 h 5.2106 l -4.8568,15.40666 v 10.64635 z"
       style="font-style:normal;font-variant:normal;font-weight:bold;font-stretch:normal;font-size:30.2968px;line-height:1.25;font-family:Oswald;-inkscape-font-specification:'Oswald Bold';fill:#ffffff;fill-opacity:1;stroke-width:0.264583"
       id="path950" />
    <rect
       style="display:inline;fill:#ffffff;fill-opacity:1;stroke-width:1;stroke-linecap:round;stroke-linejoin:round;paint-order:markers stroke fill"
       id="rect860"
       width="51.250031"
       height="2.7199736"
       x="178.85902"
       y="189.8506" />
    <path
       d="m 66.461014,232.58768 q 7.724767,-14.25646 8.928961,-28.98282 0.468215,-5.55103 -0.235485,-10.40405 -1.976568,-1.60861 -4.874498,-0.8412 -2.897932,0.76743 -3.798053,2.49177 l 0.08824,11.79979 q 0.207773,17.13057 -0.109165,25.93651 z m -2.387446,42.95013 q -2.192329,6.84749 -6.203248,11.46306 -4.055307,4.69193 -7.13436,5.50732 -3.139425,0.83138 -3.475172,-0.43647 -0.143893,-0.54336 1.225134,-1.22894 l 0.120748,-0.032 q 4.542101,-2.36576 7.498043,-8.7694 0.662207,-1.4029 1.022545,-2.72586 4.235509,-13.52628 3.751675,-38.53046 l -0.784484,-30.28697 q -0.595293,-21.0336 -0.228028,-24.03821 0.367264,-3.00459 1.599556,-3.71856 0.990797,-0.65003 2.681257,-1.09769 1.69046,-0.44766 2.187762,0.45436 0.140315,0.28587 0.252231,0.70849 0.09593,0.36224 0.09257,2.30135 -0.0034,1.93912 0.156532,2.54286 0.692506,-0.31261 2.201845,-0.71231 6.58072,-1.74268 9.802219,1.15143 1.289315,1.20916 1.768955,3.02036 2.334242,8.81453 -0.734603,22.3549 -3.068845,13.54035 -7.663706,20.83026 -2.654305,4.12709 -4.992886,4.811 0.528218,24.92781 -3.144591,36.43146 z"
       style="font-style:normal;font-variant:normal;font-weight:normal;font-stretch:normal;font-size:120.481px;line-height:1.25;font-family:Kristi;-inkscape-font-specification:Kristi;fill:#000000;fill-opacity:1;stroke-width:0.264583"
       id="path901" />
    <path
       id="path903"
       style="font-style:normal;font-variant:normal;font-weight:normal;font-stretch:normal;font-size:120.481px;line-height:1.25;font-family:Kristi;-inkscape-font-specification:Kristi;fill:#000000;fill-opacity:1;stroke-width:0.264583"
       d="m 162.64636,113.02369 c -0.43963,0.0114 -0.91329,0.0799 -1.42091,0.20628 -2.73694,0.72478 -5.08055,5.78174 -7.03052,15.17088 -0.47329,2.27892 -1.06925,5.55965 -1.78739,9.84163 -0.72881,4.24173 -1.25379,7.13713 -1.57563,8.68679 l -1.38087,7.4727 c -0.71464,3.80726 -1.47412,6.54948 -2.27895,8.22705 -0.80483,1.67757 -1.635,3.01755 -2.48962,4.01917 -2.65644,0.70347 -5.04385,1.85267 -7.16273,3.4475 -2.07864,1.58418 -5.33503,7.09802 -9.76867,16.54188 -3.68234,7.90648 -6.30081,14.43743 -7.86441,19.60425 -0.68621,1.20947 -0.77409,1.35807 -1.89053,3.33065 -2.52346,4.45857 -5.0272,8.1792 -7.51056,11.1627 -2.49402,2.94326 -4.90784,4.72422 -7.24228,5.34242 -2.33445,0.61821 -3.9071,0.12973 -4.717005,-1.4648 -0.312605,-0.69252 -0.815333,-2.3466 -1.508146,-4.96279 -0.692814,-2.61618 -1.013291,-6.42922 -0.961725,-11.43919 3.111916,-3.53761 5.934496,-7.92443 8.467346,-13.16076 2.53284,-5.23633 4.19238,-9.70332 4.97924,-13.4005 0.0283,-0.86894 -0.005,-1.4844 -0.10095,-1.84664 -0.63952,-2.41494 -2.43167,-3.81421 -5.37589,-4.19746 -1.24421,-0.1443 -2.3895,-0.078 -3.43598,0.19914 -2.173449,0.57557 -3.925445,2.41789 -5.255745,5.52676 -3.151858,6.47705 -4.971187,13.26903 -5.458183,20.37561 -0.457406,7.05565 -0.211828,12.37434 0.736793,15.9565 1.662748,6.27885 4.379571,10.27613 8.150242,11.99111 2.001943,0.89122 4.169953,1.02747 6.504393,0.40927 4.18129,-1.10728 8.27768,-4.69111 12.28956,-10.73094 0.0144,0.0793 0.0287,0.15784 0.0472,0.22768 0.74611,2.81743 2.21179,4.36791 4.39717,4.65062 0.62744,0.0923 1.28365,0.0479 1.96788,-0.13331 2.41494,-0.63953 4.28122,-1.88793 5.59863,-3.74431 1.347,-1.90729 2.17464,-3.00934 2.48359,-3.30651 3.37568,-5.63182 6.87646,-12.82549 10.50161,-21.58147 l 4.05976,-9.79719 c -0.003,1.93912 -0.34736,6.9835 -1.03195,15.13303 -0.655,8.09864 -0.16181,15.24706 1.47962,21.44542 0.88467,3.34067 2.32919,5.54247 4.33352,6.60533 0.99684,0.51132 1.99854,0.6335 3.00477,0.36703 1.58626,-0.67849 2.11584,-2.17546 1.58879,-4.49097 -0.22382,-0.84523 -1.04213,-1.5762 -2.4545,-2.19282 -1.50591,-0.80722 -2.38397,-1.52188 -2.63501,-2.14454 -0.951,-3.75383 -0.84579,-12.13793 0.31655,-25.15187 l 0.62104,-7.65868 c 1.63934,-25.20033 4.57119,-44.9502 8.79596,-59.24891 2.33445,-0.6182 4.018,-2.31312 5.05001,-5.08458 1.03201,-2.77144 1.2865,-5.1428 0.76423,-7.115 -0.62833,-2.10835 -1.89464,-3.13772 -3.79972,-3.08816 z m -21.15574,61.57614 c 0.18232,0.0379 0.33208,0.27868 0.44932,0.72143 0.10658,0.40249 0.11839,1.2606 0.0357,2.57466 -0.42797,5.54036 -2.68857,12.53516 -6.78255,20.98457 -4.09398,8.44941 -7.31397,14.01829 -9.66003,16.70701 -0.62618,0.72575 -1.12067,1.13682 -1.48291,1.23274 -0.30306,-0.006 -0.53412,-0.31081 -0.694,-0.91454 -0.15988,-0.60374 0.10551,-2.20318 0.79659,-4.7982 3.02827,-11.00991 7.8424,-21.78185 14.44232,-32.31624 1.64879,-2.71943 2.61386,-4.11682 2.8956,-4.19143 z m -39.80047,7.30976 c 0.29718,0.30895 0.48279,0.60428 0.5574,0.88602 0.50096,1.89171 -0.13412,4.8599 -1.90589,8.90404 -1.771773,4.04414 -3.04427,6.23303 -3.817275,6.56694 -0.255808,-0.96598 0.383088,-3.67669 1.916865,-8.13159 1.57403,-4.46556 2.6571,-7.20725 3.2489,-8.22541 z" />
    <path
       d="m 168.48106,165.51436 q -2.89077,1.28237 -3.79119,17.15584 -0.90043,15.87345 -0.19695,18.52989 0.70347,2.65644 1.18646,2.52853 2.53569,-0.67149 5.0311,-12.96167 2.47942,-12.35054 0.0812,-21.40658 -1.08719,-4.1054 -2.31064,-3.84601 z m -2.94848,-7.23051 q 1.69045,-0.44768 3.15374,0.19853 2.59271,1.25164 3.96768,6.44376 6.28328,23.72682 0.96461,37.79836 l -0.50948,1.49168 q -3.23801,8.99801 -6.43781,9.84538 -4.03621,0.6166 -6.04687,-4.53639 -1.16714,-4.40727 -1.1704,-18.81387 0.0571,-14.42258 2.09982,-25.49455 1.21752,-6.13709 3.97871,-6.9329 z"
       style="font-style:normal;font-variant:normal;font-weight:normal;font-stretch:normal;font-size:120.481px;line-height:1.25;font-family:Kristi;-inkscape-font-specification:Kristi;fill:#000000;fill-opacity:1;stroke-width:0.264583"
       id="path907" />
    <path
       d="m 69.826308,235.95294 q 7.724767,-14.25646 8.928961,-28.98282 0.468217,-5.55102 -0.235484,-10.40406 -1.976569,-1.6086 -4.8745,-0.84119 -2.897932,0.76743 -3.798053,2.49177 l 0.08824,11.79979 q 0.207775,17.13057 -0.109164,25.93651 z m -2.387447,42.95013 q -2.192325,6.84749 -6.203247,11.46306 -4.055306,4.69193 -7.134359,5.50732 -3.139426,0.83138 -3.475173,-0.43647 -0.143893,-0.54337 1.225134,-1.22894 l 0.120747,-0.032 q 4.542104,-2.36575 7.498047,-8.76938 0.662204,-1.40292 1.022542,-2.72588 4.235512,-13.52626 3.751675,-38.53045 l -0.784484,-30.28698 q -0.595293,-21.0336 -0.228026,-24.03819 0.367265,-3.0046 1.599556,-3.71857 0.990794,-0.65004 2.681254,-1.0977 1.690461,-0.44766 2.187763,0.45436 0.140315,0.28588 0.252232,0.7085 0.09593,0.36225 0.09257,2.30136 -0.0034,1.9391 0.156529,2.54284 0.692506,-0.31261 2.201845,-0.7123 6.580719,-1.74269 9.802219,1.15143 1.289315,1.20915 1.768955,3.02036 2.334245,8.81454 -0.734602,22.35489 -3.068846,13.54036 -7.663707,20.83026 -2.654304,4.1271 -4.992887,4.811 0.528222,24.92782 -3.144591,36.43146 z"
       style="font-style:normal;font-variant:normal;font-weight:normal;font-stretch:normal;font-size:120.481px;line-height:1.25;font-family:Kristi;-inkscape-font-specification:Kristi;fill:#000000;fill-opacity:0.2;stroke-width:0.264583"
       id="path914" />
    <path
       id="path916"
       style="font-style:normal;font-variant:normal;font-weight:normal;font-stretch:normal;font-size:120.481px;line-height:1.25;font-family:Kristi;-inkscape-font-specification:Kristi;fill:#000000;fill-opacity:0.2;stroke-width:0.264583"
       d="m 166.01157,116.3889 c -0.43963,0.0114 -0.91329,0.0799 -1.42091,0.20628 -2.73694,0.72479 -5.08055,5.78174 -7.03052,15.17089 -0.4733,2.27892 -1.06871,5.55964 -1.78684,9.84162 -0.72881,4.24173 -1.25434,7.13767 -1.57618,8.68734 l -1.38086,7.47216 c -0.71464,3.80727 -1.47413,6.54947 -2.27896,8.22705 -0.80482,1.67756 -1.63445,3.01755 -2.48907,4.01916 -2.65644,0.70347 -5.0444,1.85266 -7.16328,3.4475 -2.07864,1.58418 -5.33448,7.09802 -9.76812,16.54188 -3.68185,7.90545 -6.30019,14.4361 -7.86386,19.60261 -0.68635,1.2097 -0.77461,1.3587 -1.89163,3.3323 -2.52345,4.45856 -5.0272,8.17919 -7.51056,11.16269 -2.49402,2.94326 -4.90783,4.72423 -7.24228,5.34242 -2.33444,0.61821 -3.90655,0.13028 -4.71646,-1.46425 -0.3126,-0.69252 -0.81533,-2.34715 -1.50814,-4.96333 -0.692815,-2.6162 -1.01384,-6.42924 -0.962274,-11.4392 3.111914,-3.5376 5.934494,-7.92442 8.467344,-13.16076 2.53284,-5.23633 4.19293,-9.70333 4.97979,-13.4005 0.0283,-0.86894 -0.006,-1.48441 -0.10149,-1.84664 -0.63953,-2.41495 -2.43168,-3.81421 -5.37589,-4.19747 -1.24422,-0.14429 -2.38951,-0.078 -3.43599,0.19915 -2.17345,0.57557 -3.92544,2.41789 -5.255742,5.52676 -3.151859,6.47705 -4.971187,13.26903 -5.458183,20.37561 -0.457407,7.05566 -0.211829,12.37434 0.736792,15.95651 1.662749,6.27885 4.379571,10.27613 8.150243,11.9911 2.00194,0.89122 4.16995,1.02748 6.50439,0.40927 4.18128,-1.10728 8.27769,-4.69111 12.28956,-10.73093 0.0144,0.0794 0.0287,0.15834 0.0472,0.22822 0.7461,2.81743 2.21233,4.36737 4.39771,4.65007 0.62744,0.0923 1.2831,0.0479 1.96733,-0.13331 2.41495,-0.63952 4.28123,-1.88793 5.59863,-3.74431 1.347,-1.90729 2.17464,-3.00934 2.48359,-3.30651 3.37569,-5.63183 6.87646,-12.8255 10.50161,-21.58146 l 4.05976,-9.79719 c -0.003,1.9391 -0.34735,6.98348 -1.03195,15.13303 -0.65499,8.09864 -0.16181,15.24706 1.47962,21.44541 0.88467,3.34067 2.32919,5.54247 4.33352,6.60534 0.99684,0.5113 1.99855,0.63349 3.00477,0.36702 1.58626,-0.67849 2.11584,-2.17546 1.5888,-4.49097 -0.22383,-0.84523 -1.04214,-1.57619 -2.45451,-2.19282 -1.50591,-0.80721 -2.38397,-1.52188 -2.63501,-2.14454 -0.95101,-3.75382 -0.84524,-12.13792 0.3171,-25.15186 l 0.62049,-7.65869 c 1.63934,-25.20032 4.57119,-44.95019 8.79596,-59.24891 2.33444,-0.6182 4.01801,-2.31257 5.05002,-5.08403 1.032,-2.77144 1.28649,-5.14334 0.76422,-7.11555 -0.62832,-2.10834 -1.89464,-3.13772 -3.79972,-3.08816 z m -21.15574,61.57669 c 0.18232,0.0379 0.33208,0.27814 0.44932,0.72088 0.10658,0.40249 0.11894,1.2606 0.0362,2.57466 -0.42797,5.54037 -2.68911,12.53516 -6.78309,20.98457 -4.09398,8.44941 -7.31398,14.0183 -9.66004,16.70701 -0.62618,0.72576 -1.12067,1.13682 -1.48291,1.23274 -0.30306,-0.006 -0.53412,-0.31081 -0.694,-0.91454 -0.15988,-0.60374 0.10551,-2.20317 0.79659,-4.7982 3.02827,-11.00991 7.8424,-21.78185 14.44233,-32.31624 1.64879,-2.71942 2.61385,-4.11627 2.89559,-4.19088 z m -39.80046,7.30921 c 0.29716,0.30895 0.48278,0.60428 0.55739,0.88602 0.50096,1.89171 -0.13412,4.8599 -1.90589,8.90404 -1.77177,4.04415 -3.04427,6.23303 -3.817273,6.56694 -0.255805,-0.96597 0.383093,-3.67614 1.916863,-8.13104 1.57403,-4.46557 2.6571,-7.2078 3.24891,-8.22596 z" />
    <path
       d="m 171.84636,168.87962 q -2.89078,1.28239 -3.79121,17.15584 -0.90041,15.87346 -0.19694,18.52989 0.70346,2.65644 1.18645,2.52853 2.53569,-0.67149 5.03111,-12.96166 2.47943,-12.35055 0.0812,-21.40658 -1.08718,-4.10541 -2.31064,-3.84602 z m -2.94849,-7.23051 q 1.69046,-0.44767 3.15374,0.19855 2.59271,1.25163 3.96768,6.44375 6.28327,23.72681 0.96463,37.79836 l -0.50949,1.49167 q -3.23802,8.99802 -6.43781,9.84539 -4.0362,0.6166 -6.04689,-4.5364 -1.16712,-4.40727 -1.1704,-18.81386 0.0571,-14.42258 2.09982,-25.49456 1.21752,-6.13709 3.97872,-6.9329 z"
       style="font-style:normal;font-variant:normal;font-weight:normal;font-stretch:normal;font-size:120.481px;line-height:1.25;font-family:Kristi;-inkscape-font-specification:Kristi;fill:#000000;fill-opacity:0.2;stroke-width:0.264583"
       id="path920" />
  </g>
</svg>
