<?xml version="1.0" encoding="UTF-8" standalone="no"?>
<svg
   xmlns:dc="http://purl.org/dc/elements/1.1/"
   xmlns:cc="http://creativecommons.org/ns#"
   xmlns:rdf="http://www.w3.org/1999/02/22-rdf-syntax-ns#"
   xmlns:svg="http://www.w3.org/2000/svg"
   xmlns="http://www.w3.org/2000/svg"
   xmlns:sodipodi="http://sodipodi.sourceforge.net/DTD/sodipodi-0.dtd"
   xmlns:inkscape="http://www.inkscape.org/namespaces/inkscape"
   width="800"
   height="692.33661"
   viewBox="0 0 211.66666 183.18073"
   version="1.1"
   id="svg8"
   inkscape:version="1.0.2-2 (e86c870879, 2021-01-15)"
   sodipodi:docname="no-hay-pedo-LOGO.svg">
  <defs
     id="defs2" />
  <sodipodi:namedview
     id="base"
     pagecolor="#ffffff"
     bordercolor="#666666"
     borderopacity="1.0"
     inkscape:pageopacity="0.0"
     inkscape:pageshadow="2"
     inkscape:zoom="1"
     inkscape:cx="452.40351"
     inkscape:cy="279.11132"
     inkscape:document-units="px"
     inkscape:current-layer="layer1"
     inkscape:document-rotation="0"
     showgrid="false"
     units="px"
     fit-margin-top="0"
     fit-margin-left="0"
     fit-margin-right="0"
     fit-margin-bottom="0" />
  <metadata
     id="metadata5">
    <rdf:RDF>
      <cc:Work
         rdf:about="">
        <dc:format>image/svg+xml</dc:format>
        <dc:type
           rdf:resource="http://purl.org/dc/dcmitype/StillImage" />
        <dc:title></dc:title>
      </cc:Work>
    </rdf:RDF>
  </metadata>
  <g
     inkscape:label="background"
     inkscape:groupmode="layer"
     id="layer1"
     style="display:inline"
     transform="translate(-22.620933,-113.02198)">
    <path
       d="M 24.998373,249.29539 V 146.51615 h 15.987882 l 21.063401,49.4863 v -49.4863 H 80.829074 V 249.29539 H 65.475631 L 44.41223,196.00245 v 53.29294 z"
       style="font-style:normal;font-variant:normal;font-weight:bold;font-stretch:normal;font-size:119.521px;line-height:1.25;font-family:Oswald;-inkscape-font-specification:'Oswald Bold';fill:#ffffff;fill-opacity:1;stroke-width:0.264583"
       id="path939" />
    <path
       d="m 125.62038,250.81804 q -11.5468,0 -18.27186,-4.06041 -6.72506,-4.06041 -9.64348,-11.67369 -2.91843,-7.61328 -2.91843,-18.14498 v -38.19328 q 0,-10.65858 2.91843,-18.14497 2.91842,-7.48639 9.64348,-11.41992 6.72506,-4.06041 18.27186,-4.06041 11.67369,0 18.39876,4.06041 6.85195,3.93353 9.77037,11.41992 2.91843,7.48639 2.91843,18.14497 v 38.19328 q 0,10.5317 -2.91843,18.14498 -2.91842,7.61328 -9.77037,11.67369 -6.72507,4.06041 -18.39876,4.06041 z m 0,-16.11477 q 3.55287,0 5.20241,-1.77643 1.64955,-1.77643 2.1571,-4.56797 0.50755,-2.79153 0.50755,-5.70995 v -49.4863 q 0,-3.04532 -0.50755,-5.70997 -0.50755,-2.79153 -2.1571,-4.56796 -1.64954,-1.77643 -5.20241,-1.77643 -3.29909,0 -4.94863,1.77643 -1.64954,1.77643 -2.15709,4.56796 -0.50755,2.66465 -0.50755,5.70997 v 49.4863 q 0,2.91842 0.38066,5.70995 0.50756,2.79154 2.03021,4.56797 1.64954,1.77643 5.2024,1.77643 z"
       style="font-style:normal;font-variant:normal;font-weight:bold;font-stretch:normal;font-size:119.521px;line-height:1.25;font-family:Oswald;-inkscape-font-specification:'Oswald Bold';fill:#ffffff;fill-opacity:1;stroke-width:0.264583"
       id="path941" />
    <path
       d="m 182.83189,190.1583 v -26.05301 h 5.7574 v 10.54986 h 4.02053 v -10.54986 h 5.78955 v 26.05301 h -5.78955 v -11.38613 h -4.02053 v 11.38613 z"
       style="font-style:normal;font-variant:normal;font-weight:bold;font-stretch:normal;font-size:30.2968px;line-height:1.25;font-family:Oswald;-inkscape-font-specification:'Oswald Bold';fill:#ffffff;fill-opacity:1;stroke-width:0.264583"
       id="path946" />
    <path
       d="m 201.10112,190.1583 4.92112,-26.05301 h 6.56151 l 4.8568,26.05301 h -5.3071 l -0.86844,-5.50007 h -3.82754 l -0.9006,5.50007 z m 6.85098,-8.94165 h 2.76613 l -1.38307,-10.16389 z"
       style="font-style:normal;font-variant:normal;font-weight:bold;font-stretch:normal;font-size:30.2968px;line-height:1.25;font-family:Oswald;-inkscape-font-specification:'Oswald Bold';fill:#ffffff;fill-opacity:1;stroke-width:0.264583"
       id="path948" />
    <path
       d="m 222.07212,190.1583 v -10.64635 l -4.95329,-15.40666 h 5.43575 l 2.47665,8.23404 2.21933,-8.23404 h 5.2106 l -4.8568,15.40666 v 10.64635 z"
       style="font-style:normal;font-variant:normal;font-weight:bold;font-stretch:normal;font-size:30.2968px;line-height:1.25;font-family:Oswald;-inkscape-font-specification:'Oswald Bold';fill:#ffffff;fill-opacity:1;stroke-width:0.264583"
       id="path950" />
    <rect
       style="display:inline;fill:#ffffff;fill-opacity:1;stroke-width:1;stroke-linecap:round;stroke-linejoin:round;paint-order:markers stroke fill"
       id="rect860"
       width="51.250031"
       height="2.7199736"
       x="181.23647"
       y="192.22804" />
    <path
       d="m 68.838454,234.96512 q 7.724767,-14.25646 8.928961,-28.98282 0.468215,-5.55103 -0.235485,-10.40405 -1.976568,-1.60861 -4.874498,-0.8412 -2.897932,0.76743 -3.798053,2.49177 l 0.08824,11.79979 q 0.207773,17.13057 -0.109165,25.93651 z m -2.387446,42.95013 q -2.192329,6.84749 -6.203248,11.46306 -4.055307,4.69193 -7.13436,5.50732 -3.139425,0.83138 -3.475172,-0.43647 -0.143893,-0.54336 1.225134,-1.22894 l 0.120748,-0.032 q 4.542101,-2.36576 7.498043,-8.7694 0.662207,-1.4029 1.022545,-2.72586 4.235509,-13.52628 3.751675,-38.53046 l -0.784484,-30.28697 q -0.595293,-21.0336 -0.228028,-24.03821 0.367264,-3.00459 1.599556,-3.71856 0.990797,-0.65003 2.681257,-1.09769 1.69046,-0.44766 2.187762,0.45436 0.140315,0.28587 0.252231,0.70849 0.09593,0.36224 0.09257,2.30135 -0.0034,1.93912 0.156532,2.54286 0.692506,-0.31261 2.201845,-0.71231 6.58072,-1.74268 9.802219,1.15143 1.289315,1.20916 1.768955,3.02036 2.334242,8.81453 -0.734603,22.3549 -3.068845,13.54035 -7.663706,20.83026 -2.654305,4.12709 -4.992886,4.811 0.528218,24.92781 -3.144591,36.43146 z"
       style="font-style:normal;font-variant:normal;font-weight:normal;font-stretch:normal;font-size:120.481px;line-height:1.25;font-family:Kristi;-inkscape-font-specification:Kristi;fill:#000000;fill-opacity:1;stroke-width:0.264583"
       id="path901" />
    <path
       id="path903"
       style="font-style:normal;font-variant:normal;font-weight:normal;font-stretch:normal;font-size:120.481px;line-height:1.25;font-family:Kristi;-inkscape-font-specification:Kristi;fill:#000000;fill-opacity:1;stroke-width:0.264583"
       d="m 165.0238,115.40113 c -0.43963,0.0114 -0.91329,0.0799 -1.42091,0.20628 -2.73694,0.72478 -5.08055,5.78174 -7.03052,15.17088 -0.47329,2.27892 -1.06925,5.55965 -1.78739,9.84163 -0.72881,4.24173 -1.25379,7.13713 -1.57563,8.68679 l -1.38087,7.4727 c -0.71464,3.80726 -1.47412,6.54948 -2.27895,8.22705 -0.80483,1.67757 -1.635,3.01755 -2.48962,4.01917 -2.65644,0.70347 -5.04385,1.85267 -7.16273,3.4475 -2.07864,1.58418 -5.33503,7.09802 -9.76867,16.54188 -3.68234,7.90648 -6.30081,14.43743 -7.86441,19.60425 -0.68621,1.20947 -0.77409,1.35807 -1.89053,3.33065 -2.52346,4.45857 -5.0272,8.1792 -7.51056,11.1627 -2.49402,2.94326 -4.90784,4.72422 -7.24228,5.34242 -2.33445,0.61821 -3.9071,0.12973 -4.71701,-1.4648 -0.3126,-0.69252 -0.81533,-2.3466 -1.50814,-4.96279 -0.69282,-2.61618 -1.01329,-6.42922 -0.96173,-11.43919 3.11192,-3.53761 5.9345,-7.92443 8.46735,-13.16076 2.53284,-5.23633 4.19238,-9.70332 4.97924,-13.4005 0.0283,-0.86894 -0.005,-1.4844 -0.10095,-1.84664 -0.63952,-2.41494 -2.43167,-3.81421 -5.37589,-4.19746 -1.24421,-0.1443 -2.3895,-0.078 -3.43598,0.19914 -2.17345,0.57557 -3.92545,2.41789 -5.25575,5.52676 -3.15185,6.47705 -4.971182,13.26903 -5.458178,20.37561 -0.457406,7.05565 -0.211828,12.37434 0.736793,15.9565 1.662745,6.27885 4.379575,10.27613 8.150245,11.99111 2.00194,0.89122 4.16995,1.02747 6.50439,0.40927 4.18129,-1.10728 8.27768,-4.69111 12.28956,-10.73094 0.0144,0.0793 0.0287,0.15784 0.0472,0.22768 0.74611,2.81743 2.21179,4.36791 4.39717,4.65062 0.62744,0.0923 1.28365,0.0479 1.96788,-0.13331 2.41494,-0.63953 4.28122,-1.88793 5.59863,-3.74431 1.347,-1.90729 2.17464,-3.00934 2.48359,-3.30651 3.37568,-5.63182 6.87646,-12.82549 10.50161,-21.58147 l 4.05976,-9.79719 c -0.003,1.93912 -0.34736,6.9835 -1.03195,15.13303 -0.655,8.09864 -0.16181,15.24706 1.47962,21.44542 0.88467,3.34067 2.32919,5.54247 4.33352,6.60533 0.99684,0.51132 1.99854,0.6335 3.00477,0.36703 1.58626,-0.67849 2.11584,-2.17546 1.58879,-4.49097 -0.22382,-0.84523 -1.04213,-1.5762 -2.4545,-2.19282 -1.50591,-0.80722 -2.38397,-1.52188 -2.63501,-2.14454 -0.951,-3.75383 -0.84579,-12.13793 0.31655,-25.15187 l 0.62104,-7.65868 c 1.63934,-25.20033 4.57119,-44.9502 8.79596,-59.24891 2.33445,-0.6182 4.018,-2.31312 5.05001,-5.08458 1.03201,-2.77144 1.2865,-5.1428 0.76423,-7.115 -0.62833,-2.10835 -1.89464,-3.13772 -3.79972,-3.08816 z m -21.15574,61.57614 c 0.18232,0.0379 0.33208,0.27868 0.44932,0.72143 0.10658,0.40249 0.11839,1.2606 0.0357,2.57466 -0.42797,5.54036 -2.68857,12.53516 -6.78255,20.98457 -4.09398,8.44941 -7.31397,14.01829 -9.66003,16.70701 -0.62618,0.72575 -1.12067,1.13682 -1.48291,1.23274 -0.30306,-0.006 -0.53412,-0.31081 -0.694,-0.91454 -0.15988,-0.60374 0.10551,-2.20318 0.79659,-4.7982 3.02827,-11.00991 7.8424,-21.78185 14.44232,-32.31624 1.64879,-2.71943 2.61386,-4.11682 2.8956,-4.19143 z m -39.80047,7.30976 c 0.29718,0.30895 0.48279,0.60428 0.5574,0.88602 0.50096,1.89171 -0.13412,4.8599 -1.90589,8.90404 -1.77177,4.04414 -3.04427,6.23303 -3.81728,6.56694 -0.2558,-0.96598 0.38309,-3.67669 1.91687,-8.13159 1.57403,-4.46556 2.6571,-7.20725 3.2489,-8.22541 z" />
    <path
       d="m 170.8585,167.8918 q -2.89077,1.28237 -3.79119,17.15584 -0.90043,15.87345 -0.19695,18.52989 0.70347,2.65644 1.18646,2.52853 2.53569,-0.67149 5.0311,-12.96167 2.47942,-12.35054 0.0812,-21.40658 -1.08719,-4.1054 -2.31064,-3.84601 z m -2.94848,-7.23051 q 1.69045,-0.44768 3.15374,0.19853 2.59271,1.25164 3.96768,6.44376 6.28328,23.72682 0.96461,37.79836 l -0.50948,1.49168 q -3.23801,8.99801 -6.43781,9.84538 -4.03621,0.6166 -6.04687,-4.53639 -1.16714,-4.40727 -1.1704,-18.81387 0.0571,-14.42258 2.09982,-25.49455 1.21752,-6.13709 3.97871,-6.9329 z"
       style="font-style:normal;font-variant:normal;font-weight:normal;font-stretch:normal;font-size:120.481px;line-height:1.25;font-family:Kristi;-inkscape-font-specification:Kristi;fill:#000000;fill-opacity:1;stroke-width:0.264583"
       id="path907" />
  </g>
</svg>
